<svg xmlns="http://www.w3.org/2000/svg" viewBox="0 0 404 691.62"><defs><style>.cls-1{fill:#bbbfc2;}.cls-2{fill:#c7cacc;}.cls-3{fill:#a9a9a9;}</style></defs><g id="Icon"><path class="cls-1" d="M615.53,479.51c0,94.59,19.77,188.86,55.39,269.48H451.08c36.44-81.39,56.68-173.75,56.68-269.48Z" transform="translate(-359 -265.19)"/><path class="cls-2" d="M681.43,748.63H440.58a7.9,7.9,0,0,0-6.88,11.78l17.38,21H670.92l17.38-21A7.89,7.89,0,0,0,681.43,748.63Z" transform="translate(-359 -265.19)"/><path class="cls-2" d="M733.81,898.43H388.19A29.17,29.17,0,0,0,359,927.62H763A29.19,29.19,0,0,0,733.81,898.43Z" transform="translate(-359 -265.19)"/><polygon class="cls-1" points="259.24 662.43 0 662.43 0 691.62 259.24 691.62 404 691.62 404 662.43 259.24 662.43"/><path class="cls-1" d="M728.52,830.11A225,225,0,0,1,707.43,816a221.67,221.67,0,0,1-19.3-16.4q-4.71-4.47-9.14-9.22c-1.15-1.22-7.77-8.73-7.77-8.73H450.78s-6.62,7.51-7.77,8.73q-4.42,4.75-9.14,9.22a221.67,221.67,0,0,1-19.3,16.4,225,225,0,0,1-21.09,14.16C377.65,839.47,359,847.93,359,869.23a29.19,29.19,0,0,0,29.19,29.2H733.81A29.19,29.19,0,0,0,763,869.23C763,847.93,744.35,839.47,728.52,830.11Z" transform="translate(-359 -265.19)"/><path class="cls-2" d="M631.82,465.26A14.61,14.61,0,0,0,620.38,451v-.36H504.79A14.61,14.61,0,1,0,508,479.51H614a14.55,14.55,0,0,0,3.18.36,14.39,14.39,0,0,0,3.17-.36h0A14.61,14.61,0,0,0,631.82,465.26Z" transform="translate(-359 -265.19)"/><path class="cls-1" d="M648.39,271.84l-16.94,57.8H604.08l7.33-54a9.24,9.24,0,0,0-9.16-10.49H516.69a9.24,9.24,0,0,0-9.16,10.49l7.33,54H487.48l-16.93-57.8a9.26,9.26,0,0,0-8.88-6.65h-29.8A9.24,9.24,0,0,0,423,277L457.25,394a23.12,23.12,0,0,0,22.19,16.62H639.5A23.11,23.11,0,0,0,661.68,394L695.94,277a9.25,9.25,0,0,0-8.88-11.84h-29.8A9.25,9.25,0,0,0,648.39,271.84Z" transform="translate(-359 -265.19)"/><path class="cls-2" d="M687.06,265.19s-29.64,133.71-204.54,145l-.64.36H639.5A23.11,23.11,0,0,0,661.68,394L695.94,277A9.25,9.25,0,0,0,687.06,265.19Z" transform="translate(-359 -265.19)"/><path class="cls-3" d="M453.49,272.12H440.66A9.26,9.26,0,0,0,431.78,284L439.42,310a40.09,40.09,0,0,1,14.07-37.91Z" transform="translate(-359 -265.19)"/><path class="cls-3" d="M536.7,272.12H523.87A9.25,9.25,0,0,0,515,284L518.36,310s.16-4.88.46-7.2C520.81,287.48,527.75,279.48,536.7,272.12Z" transform="translate(-359 -265.19)"/><path class="cls-3" d="M374.26,868.16a25.81,25.81,0,0,1,13.34-22.6,21.34,21.34,0,0,0-4.53,42A25.72,25.72,0,0,1,374.26,868.16Z" transform="translate(-359 -265.19)"/><path class="cls-1" d="M638.7,410.57H481a20.39,20.39,0,0,0-.17,40.78H638a20.88,20.88,0,0,0,4.43-.49,20.41,20.41,0,0,0,16-19.91C658.35,421.22,652.11,410.57,638.7,410.57Z" transform="translate(-359 -265.19)"/><path class="cls-3" d="M472.37,432.11A18.39,18.39,0,0,1,481.88,416a15.21,15.21,0,0,0-3.24,29.93A18.34,18.34,0,0,1,472.37,432.11Z" transform="translate(-359 -265.19)"/></g></svg>